<svg width="41" height="37" viewBox="0 0 41 37" fill="none" xmlns="http://www.w3.org/2000/svg">
<path d="M27.2514 19.651C25.5527 16.9998 22.659 15.418 19.5099 15.418C16.3607 15.418 13.4685 17.0012 11.7683 19.651L7.67388 26.0387C6.99411 27.0981 6.68093 28.3234 6.76753 29.579C6.85412 30.8346 7.33184 32.0051 8.15015 32.962C8.96847 33.9188 10.0494 34.5726 11.2776 34.8526C12.5058 35.1326 13.7629 35.0128 14.916 34.5062L14.9925 34.4716C17.8934 33.2217 21.2086 33.2333 24.1022 34.5062C24.8484 34.8338 25.6393 34.9998 26.4374 34.9998C26.8718 34.9998 27.3077 34.9507 27.7406 34.8526C28.9688 34.5726 30.0498 33.9188 30.8681 32.962C31.6865 32.0051 32.1642 30.8346 32.2508 29.579C32.3373 28.3234 32.0242 27.0981 31.3444 26.0387L27.2499 19.6524L27.2514 19.651Z" stroke="#F7924A" stroke-width="3" stroke-miterlimit="10"/>
<path d="M7.58567 17.2435C8.59016 16.8581 9.35219 16.0485 9.73321 14.966C10.0955 13.9356 10.0666 12.7709 9.6495 11.6884C9.2324 10.606 8.4747 9.72276 7.51351 9.20175C6.50468 8.65332 5.39628 8.56384 4.39468 8.95063C2.37847 9.72565 1.45336 12.2167 2.33229 14.5056C3.03515 16.327 4.67178 17.4773 6.32862 17.4773C6.75148 17.4773 7.17579 17.4022 7.58567 17.2449V17.2435Z" stroke="#F7924A" stroke-width="3" stroke-miterlimit="10"/>
<path d="M15.9623 12.4158C18.4822 12.4158 20.5331 10.0792 20.5331 7.20864C20.5331 4.33804 18.4822 2 15.9623 2C13.4424 2 11.3916 4.3366 11.3916 7.20864C11.3916 10.0807 13.4424 12.4158 15.9623 12.4158Z" stroke="#F7924A" stroke-width="3" stroke-miterlimit="10"/>
<path d="M25.8254 13.6945C26.2136 13.8229 26.6091 13.885 27.0031 13.885C28.8417 13.885 30.6328 12.5471 31.3155 10.4905C31.7095 9.30702 31.6835 8.05574 31.2418 6.96754C30.7815 5.82738 29.9256 5.0004 28.836 4.63815C27.7449 4.2759 26.5657 4.42744 25.5136 5.06391C24.5091 5.67151 23.7399 6.65868 23.3459 7.84214C22.516 10.3389 23.6273 12.9642 25.8239 13.6945H25.8254Z" stroke="#F7924A" stroke-width="3" stroke-miterlimit="10"/>
<path d="M37.2801 13.7914C35.5425 12.5069 32.9432 13.0625 31.4855 15.0326C30.0293 17.0026 30.2573 19.6495 31.9921 20.9354C32.6257 21.4044 33.3733 21.6281 34.1382 21.6281C35.4717 21.6281 36.8601 20.9469 37.7881 19.6957C39.2444 17.7256 39.0163 15.0787 37.2801 13.7928V13.7914Z" stroke="#F7924A" stroke-width="3" stroke-miterlimit="10"/>
</svg>
