<svg width="178" height="54" viewBox="0 0 178 54" fill="none" xmlns="http://www.w3.org/2000/svg">
<path d="M72.808 22.648C72.808 23.992 72.484 25.252 71.836 26.428C71.212 27.604 70.216 28.552 68.848 29.272C67.504 29.992 65.8 30.352 63.736 30.352H59.524V40H54.484V14.872H63.736C65.68 14.872 67.336 15.208 68.704 15.88C70.072 16.552 71.092 17.476 71.764 18.652C72.46 19.828 72.808 21.16 72.808 22.648ZM63.52 26.284C64.912 26.284 65.944 25.972 66.616 25.348C67.288 24.7 67.624 23.8 67.624 22.648C67.624 20.2 66.256 18.976 63.52 18.976H59.524V26.284H63.52ZM94.9263 29.596C94.9263 30.316 94.8783 30.964 94.7823 31.54H80.2023C80.3223 32.98 80.8263 34.108 81.7143 34.924C82.6023 35.74 83.6943 36.148 84.9903 36.148C86.8623 36.148 88.1943 35.344 88.9863 33.736H94.4223C93.8463 35.656 92.7423 37.24 91.1103 38.488C89.4783 39.712 87.4743 40.324 85.0983 40.324C83.1783 40.324 81.4503 39.904 79.9143 39.064C78.4023 38.2 77.2143 36.988 76.3503 35.428C75.5103 33.868 75.0903 32.068 75.0903 30.028C75.0903 27.964 75.5103 26.152 76.3503 24.592C77.1903 23.032 78.3663 21.832 79.8783 20.992C81.3903 20.152 83.1303 19.732 85.0983 19.732C86.9943 19.732 88.6863 20.14 90.1743 20.956C91.6863 21.772 92.8503 22.936 93.6663 24.448C94.5063 25.936 94.9263 27.652 94.9263 29.596ZM89.7063 28.156C89.6823 26.86 89.2143 25.828 88.3023 25.06C87.3903 24.268 86.2743 23.872 84.9543 23.872C83.7063 23.872 82.6503 24.256 81.7863 25.024C80.9463 25.768 80.4303 26.812 80.2383 28.156H89.7063ZM104.473 24.196V33.844C104.473 34.516 104.629 35.008 104.941 35.32C105.277 35.608 105.829 35.752 106.597 35.752H108.937V40H105.769C101.521 40 99.3971 37.936 99.3971 33.808V24.196H97.0211V20.056H99.3971V15.124H104.473V20.056H108.937V24.196H104.473ZM139.958 14.872V40H134.918V23.656L128.186 40H124.37L117.602 23.656V40H112.562V14.872H118.286L126.278 33.556L134.27 14.872H139.958ZM163.481 29.596C163.481 30.316 163.433 30.964 163.337 31.54H148.757C148.877 32.98 149.381 34.108 150.269 34.924C151.157 35.74 152.249 36.148 153.545 36.148C155.417 36.148 156.749 35.344 157.541 33.736H162.977C162.401 35.656 161.297 37.24 159.665 38.488C158.033 39.712 156.029 40.324 153.653 40.324C151.733 40.324 150.005 39.904 148.469 39.064C146.957 38.2 145.769 36.988 144.905 35.428C144.065 33.868 143.645 32.068 143.645 30.028C143.645 27.964 144.065 26.152 144.905 24.592C145.745 23.032 146.921 21.832 148.433 20.992C149.945 20.152 151.685 19.732 153.653 19.732C155.549 19.732 157.241 20.14 158.729 20.956C160.241 21.772 161.405 22.936 162.221 24.448C163.061 25.936 163.481 27.652 163.481 29.596ZM158.261 28.156C158.237 26.86 157.769 25.828 156.857 25.06C155.945 24.268 154.829 23.872 153.509 23.872C152.261 23.872 151.205 24.256 150.341 25.024C149.501 25.768 148.985 26.812 148.793 28.156H158.261ZM173.676 14.44L173.1 31.828H168.852L168.24 14.44H173.676ZM171.084 40.252C170.172 40.252 169.416 39.976 168.816 39.424C168.24 38.848 167.952 38.14 167.952 37.3C167.952 36.46 168.24 35.764 168.816 35.212C169.416 34.636 170.172 34.348 171.084 34.348C171.972 34.348 172.704 34.636 173.28 35.212C173.856 35.764 174.144 36.46 174.144 37.3C174.144 38.14 173.856 38.848 173.28 39.424C172.704 39.976 171.972 40.252 171.084 40.252Z" fill="#F7924A"/>
<path d="M27.2514 28.651C25.5527 25.9998 22.659 24.418 19.5099 24.418C16.3607 24.418 13.4685 26.0012 11.7683 28.651L7.67388 35.0387C6.99411 36.0981 6.68093 37.3234 6.76753 38.579C6.85412 39.8346 7.33184 41.0051 8.15015 41.962C8.96847 42.9188 10.0494 43.5726 11.2776 43.8526C12.5058 44.1326 13.7629 44.0128 14.916 43.5062L14.9925 43.4716C17.8934 42.2217 21.2086 42.2333 24.1022 43.5062C24.8484 43.8338 25.6393 43.9998 26.4374 43.9998C26.8718 43.9998 27.3077 43.9507 27.7406 43.8526C28.9688 43.5726 30.0498 42.9188 30.8681 41.962C31.6865 41.0051 32.1642 39.8346 32.2508 38.579C32.3373 37.3234 32.0242 36.0981 31.3444 35.0387L27.2499 28.6524L27.2514 28.651Z" stroke="#F7924A" stroke-width="3" stroke-miterlimit="10"/>
<path d="M7.58567 26.2435C8.59016 25.8581 9.35219 25.0485 9.73321 23.966C10.0955 22.9356 10.0666 21.7709 9.6495 20.6884C9.2324 19.606 8.4747 18.7228 7.51351 18.2018C6.50468 17.6533 5.39628 17.5638 4.39468 17.9506C2.37847 18.7256 1.45336 21.2167 2.33229 23.5056C3.03515 25.327 4.67178 26.4773 6.32862 26.4773C6.75148 26.4773 7.17579 26.4022 7.58567 26.2449V26.2435Z" stroke="#F7924A" stroke-width="3" stroke-miterlimit="10"/>
<path d="M15.9623 21.4158C18.4822 21.4158 20.5331 19.0792 20.5331 16.2086C20.5331 13.338 18.4822 11 15.9623 11C13.4424 11 11.3916 13.3366 11.3916 16.2086C11.3916 19.0807 13.4424 21.4158 15.9623 21.4158Z" stroke="#F7924A" stroke-width="3" stroke-miterlimit="10"/>
<path d="M25.8254 22.6945C26.2136 22.8229 26.6091 22.885 27.0031 22.885C28.8417 22.885 30.6328 21.5471 31.3155 19.4905C31.7095 18.307 31.6835 17.0557 31.2418 15.9675C30.7815 14.8274 29.9256 14.0004 28.836 13.6382C27.7449 13.2759 26.5657 13.4274 25.5136 14.0639C24.5091 14.6715 23.7399 15.6587 23.3459 16.8421C22.516 19.3389 23.6273 21.9642 25.8239 22.6945H25.8254Z" stroke="#F7924A" stroke-width="3" stroke-miterlimit="10"/>
<path d="M37.2801 22.7914C35.5425 21.5069 32.9432 22.0625 31.4855 24.0326C30.0293 26.0026 30.2573 28.6495 31.9921 29.9354C32.6257 30.4044 33.3733 30.6281 34.1382 30.6281C35.4717 30.6281 36.8601 29.9469 37.7881 28.6957C39.2444 26.7256 39.0163 24.0787 37.2801 22.7928V22.7914Z" stroke="#F7924A" stroke-width="3" stroke-miterlimit="10"/>
</svg>
