<svg width="178" height="54" viewBox="0 0 178 54" fill="none" xmlns="http://www.w3.org/2000/svg">
<path d="M72.808 22.648C72.808 23.992 72.484 25.252 71.836 26.428C71.212 27.604 70.216 28.552 68.848 29.272C67.504 29.992 65.8 30.352 63.736 30.352H59.524V40H54.484V14.872H63.736C65.68 14.872 67.336 15.208 68.704 15.88C70.072 16.552 71.092 17.476 71.764 18.652C72.46 19.828 72.808 21.16 72.808 22.648ZM63.52 26.284C64.912 26.284 65.944 25.972 66.616 25.348C67.288 24.7 67.624 23.8 67.624 22.648C67.624 20.2 66.256 18.976 63.52 18.976H59.524V26.284H63.52ZM94.9263 29.596C94.9263 30.316 94.8783 30.964 94.7823 31.54H80.2023C80.3223 32.98 80.8263 34.108 81.7143 34.924C82.6023 35.74 83.6943 36.148 84.9903 36.148C86.8623 36.148 88.1943 35.344 88.9863 33.736H94.4223C93.8463 35.656 92.7423 37.24 91.1103 38.488C89.4783 39.712 87.4743 40.324 85.0983 40.324C83.1783 40.324 81.4503 39.904 79.9143 39.064C78.4023 38.2 77.2143 36.988 76.3503 35.428C75.5103 33.868 75.0903 32.068 75.0903 30.028C75.0903 27.964 75.5103 26.152 76.3503 24.592C77.1903 23.032 78.3663 21.832 79.8783 20.992C81.3903 20.152 83.1303 19.732 85.0983 19.732C86.9943 19.732 88.6863 20.14 90.1743 20.956C91.6863 21.772 92.8503 22.936 93.6663 24.448C94.5063 25.936 94.9263 27.652 94.9263 29.596ZM89.7063 28.156C89.6823 26.86 89.2143 25.828 88.3023 25.06C87.3903 24.268 86.2743 23.872 84.9543 23.872C83.7063 23.872 82.6503 24.256 81.7863 25.024C80.9463 25.768 80.4303 26.812 80.2383 28.156H89.7063ZM104.473 24.196V33.844C104.473 34.516 104.629 35.008 104.941 35.32C105.277 35.608 105.829 35.752 106.597 35.752H108.937V40H105.769C101.521 40 99.3971 37.936 99.3971 33.808V24.196H97.0211V20.056H99.3971V15.124H104.473V20.056H108.937V24.196H104.473ZM139.958 14.872V40H134.918V23.656L128.186 40H124.37L117.602 23.656V40H112.562V14.872H118.286L126.278 33.556L134.27 14.872H139.958ZM163.481 29.596C163.481 30.316 163.433 30.964 163.337 31.54H148.757C148.877 32.98 149.381 34.108 150.269 34.924C151.157 35.74 152.249 36.148 153.545 36.148C155.417 36.148 156.749 35.344 157.541 33.736H162.977C162.401 35.656 161.297 37.24 159.665 38.488C158.033 39.712 156.029 40.324 153.653 40.324C151.733 40.324 150.005 39.904 148.469 39.064C146.957 38.2 145.769 36.988 144.905 35.428C144.065 33.868 143.645 32.068 143.645 30.028C143.645 27.964 144.065 26.152 144.905 24.592C145.745 23.032 146.921 21.832 148.433 20.992C149.945 20.152 151.685 19.732 153.653 19.732C155.549 19.732 157.241 20.14 158.729 20.956C160.241 21.772 161.405 22.936 162.221 24.448C163.061 25.936 163.481 27.652 163.481 29.596ZM158.261 28.156C158.237 26.86 157.769 25.828 156.857 25.06C155.945 24.268 154.829 23.872 153.509 23.872C152.261 23.872 151.205 24.256 150.341 25.024C149.501 25.768 148.985 26.812 148.793 28.156H158.261ZM173.676 14.44L173.1 31.828H168.852L168.24 14.44H173.676ZM171.084 40.252C170.172 40.252 169.416 39.976 168.816 39.424C168.24 38.848 167.952 38.14 167.952 37.3C167.952 36.46 168.24 35.764 168.816 35.212C169.416 34.636 170.172 34.348 171.084 34.348C171.972 34.348 172.704 34.636 173.28 35.212C173.856 35.764 174.144 36.46 174.144 37.3C174.144 38.14 173.856 38.848 173.28 39.424C172.704 39.976 171.972 40.252 171.084 40.252Z" fill="#9188E3"/>
<path d="M27.2513 28.6507C25.5526 25.9995 22.6589 24.4177 19.5097 24.4177C16.3606 24.4177 13.4684 26.001 11.7682 28.6507L7.67375 35.0385C6.99399 36.0978 6.68081 37.3231 6.76741 38.5788C6.854 39.8344 7.33171 41.0048 8.15003 41.9617C8.96834 42.9186 10.0493 43.5724 11.2775 43.8524C12.5057 44.1323 13.7628 44.0125 14.9159 43.506L14.9924 43.4713C17.8933 42.2215 21.2084 42.233 24.1021 43.506C24.8483 43.8336 25.6392 43.9996 26.4373 43.9996C26.8717 43.9996 27.3075 43.9505 27.7405 43.8524C28.9687 43.5724 30.0497 42.9186 30.868 41.9617C31.6863 41.0048 32.164 39.8344 32.2506 38.5788C32.3372 37.3231 32.024 36.0978 31.3443 35.0385L27.2498 28.6522L27.2513 28.6507Z" fill="#FFF8B9" stroke="#9188E3" stroke-width="3" stroke-miterlimit="10"/>
<path d="M7.58567 26.2435C8.59016 25.8581 9.35219 25.0485 9.73321 23.966C10.0955 22.9356 10.0666 21.7709 9.6495 20.6884C9.2324 19.606 8.4747 18.7228 7.51351 18.2018C6.50468 17.6533 5.39628 17.5638 4.39468 17.9506C2.37847 18.7256 1.45336 21.2167 2.33229 23.5056C3.03515 25.327 4.67178 26.4773 6.32862 26.4773C6.75148 26.4773 7.17579 26.4022 7.58567 26.2449V26.2435Z" fill="#FFF8B9" stroke="#9188E3" stroke-width="3" stroke-miterlimit="10"/>
<path d="M15.9622 21.4158C18.4821 21.4158 20.5329 19.0792 20.5329 16.2086C20.5329 13.338 18.4821 11 15.9622 11C13.4423 11 11.3915 13.3366 11.3915 16.2086C11.3915 19.0807 13.4423 21.4158 15.9622 21.4158Z" fill="#FFF8B9" stroke="#9188E3" stroke-width="3" stroke-miterlimit="10"/>
<path d="M25.8253 22.6945C26.2135 22.8229 26.6089 22.885 27.0029 22.885C28.8416 22.885 30.6327 21.5471 31.3153 19.4905C31.7093 18.307 31.6834 17.0557 31.2417 15.9675C30.7813 14.8274 29.9255 14.0004 28.8358 13.6382C27.7448 13.2759 26.5656 13.4274 25.5135 14.0639C24.509 14.6715 23.7398 15.6587 23.3458 16.8421C22.5159 19.3389 23.6272 21.9642 25.8238 22.6945H25.8253Z" fill="#FFF8B9" stroke="#9188E3" stroke-width="3" stroke-miterlimit="10"/>
<path d="M37.2801 22.7911C35.5425 21.5066 32.9432 22.0623 31.4855 24.0323C30.0293 26.0023 30.2573 28.6492 31.9921 29.9351C32.6257 30.4042 33.3733 30.6279 34.1382 30.6279C35.4717 30.6279 36.8601 29.9467 37.7881 28.6954C39.2444 26.7254 39.0163 24.0785 37.2801 22.7926V22.7911Z" fill="#FFF8B9" stroke="#9188E3" stroke-width="3" stroke-miterlimit="10"/>
</svg>
